<mxfile host="Electron" agent="Mozilla/5.0 (Windows NT 10.0; Win64; x64) AppleWebKit/537.36 (KHTML, like Gecko) draw.io/26.1.1 Chrome/132.0.6834.210 Electron/34.3.3 Safari/537.36" version="26.1.1">
  <diagram name="Страница — 1" id="by90twAEWOPmzAvwZsDc">
    <mxGraphModel dx="1418" dy="1989" grid="1" gridSize="10" guides="1" tooltips="1" connect="1" arrows="1" fold="1" page="1" pageScale="1" pageWidth="827" pageHeight="1169" math="0" shadow="0">
      <root>
        <mxCell id="0" />
        <mxCell id="1" parent="0" />
        <mxCell id="FgcChdvhsUmPIlyyczWO-1" value="Диаграмма состояний&lt;br&gt;(Workout)" style="shape=umlFrame;whiteSpace=wrap;html=1;pointerEvents=0;width=100;height=70;" parent="1" vertex="1">
          <mxGeometry x="40" y="-1120" width="1020" height="680" as="geometry" />
        </mxCell>
        <mxCell id="FgcChdvhsUmPIlyyczWO-3" value="Начало" style="rounded=1;whiteSpace=wrap;html=1;" parent="1" vertex="1">
          <mxGeometry x="160" y="-1000" width="120" height="60" as="geometry" />
        </mxCell>
        <mxCell id="FgcChdvhsUmPIlyyczWO-7" value="" style="endArrow=open;endFill=1;endSize=12;html=1;rounded=0;exitX=1;exitY=0.5;exitDx=0;exitDy=0;entryX=0;entryY=0.5;entryDx=0;entryDy=0;" parent="1" source="FgcChdvhsUmPIlyyczWO-3" target="mNn7HaSKfOEetK7rho-s-2" edge="1">
          <mxGeometry width="160" relative="1" as="geometry">
            <mxPoint x="300" y="-790" as="sourcePoint" />
            <mxPoint x="440" y="-830" as="targetPoint" />
          </mxGeometry>
        </mxCell>
        <mxCell id="FgcChdvhsUmPIlyyczWO-8" value="Создание тренировки" style="edgeLabel;html=1;align=center;verticalAlign=middle;resizable=0;points=[];" parent="FgcChdvhsUmPIlyyczWO-7" vertex="1" connectable="0">
          <mxGeometry x="-0.0217" relative="1" as="geometry">
            <mxPoint as="offset" />
          </mxGeometry>
        </mxCell>
        <mxCell id="mNn7HaSKfOEetK7rho-s-2" value="Тренировка создана" style="rounded=1;whiteSpace=wrap;html=1;" parent="1" vertex="1">
          <mxGeometry x="430" y="-1000" width="120" height="60" as="geometry" />
        </mxCell>
        <mxCell id="mNn7HaSKfOEetK7rho-s-7" value="Тренировка отменена" style="rounded=1;whiteSpace=wrap;html=1;" parent="1" vertex="1">
          <mxGeometry x="354" y="-590" width="120" height="60" as="geometry" />
        </mxCell>
        <mxCell id="mNn7HaSKfOEetK7rho-s-8" value="Тренировка начата?" style="rhombus;whiteSpace=wrap;html=1;" parent="1" vertex="1">
          <mxGeometry x="415" y="-890" width="150" height="100" as="geometry" />
        </mxCell>
        <mxCell id="mNn7HaSKfOEetK7rho-s-9" value="" style="endArrow=open;endFill=1;endSize=12;html=1;rounded=0;exitX=0.5;exitY=1;exitDx=0;exitDy=0;entryX=0.5;entryY=0;entryDx=0;entryDy=0;" parent="1" source="mNn7HaSKfOEetK7rho-s-2" target="mNn7HaSKfOEetK7rho-s-8" edge="1">
          <mxGeometry width="160" relative="1" as="geometry">
            <mxPoint x="290" y="-960" as="sourcePoint" />
            <mxPoint x="440" y="-960" as="targetPoint" />
          </mxGeometry>
        </mxCell>
        <mxCell id="mNn7HaSKfOEetK7rho-s-11" value="Нет" style="edgeLabel;html=1;align=center;verticalAlign=middle;resizable=0;points=[];" parent="1" vertex="1" connectable="0">
          <mxGeometry x="429.99758620689653" y="-859.9999999999999" as="geometry">
            <mxPoint x="-12" y="2" as="offset" />
          </mxGeometry>
        </mxCell>
        <mxCell id="mNn7HaSKfOEetK7rho-s-12" value="Да" style="edgeLabel;html=1;align=center;verticalAlign=middle;resizable=0;points=[];" parent="1" vertex="1" connectable="0">
          <mxGeometry x="579.9975862068966" y="-859.9999999999999" as="geometry">
            <mxPoint x="-12" y="2" as="offset" />
          </mxGeometry>
        </mxCell>
        <mxCell id="mNn7HaSKfOEetK7rho-s-13" value="Тренировка запланирована" style="rounded=1;whiteSpace=wrap;html=1;" parent="1" vertex="1">
          <mxGeometry x="354" y="-720" width="120" height="60" as="geometry" />
        </mxCell>
        <mxCell id="mNn7HaSKfOEetK7rho-s-14" value="" style="endArrow=open;endFill=1;endSize=12;html=1;rounded=0;entryX=0.5;entryY=0;entryDx=0;entryDy=0;exitX=0;exitY=0.5;exitDx=0;exitDy=0;" parent="1" source="mNn7HaSKfOEetK7rho-s-8" target="mNn7HaSKfOEetK7rho-s-13" edge="1">
          <mxGeometry width="160" relative="1" as="geometry">
            <mxPoint x="425" y="-830" as="sourcePoint" />
            <mxPoint x="290" y="-770" as="targetPoint" />
            <Array as="points" />
          </mxGeometry>
        </mxCell>
        <mxCell id="mNn7HaSKfOEetK7rho-s-15" value="Ожидание тренировки" style="edgeLabel;html=1;align=center;verticalAlign=middle;resizable=0;points=[];" parent="mNn7HaSKfOEetK7rho-s-14" vertex="1" connectable="0">
          <mxGeometry x="-0.0217" relative="1" as="geometry">
            <mxPoint x="-1" y="1" as="offset" />
          </mxGeometry>
        </mxCell>
        <mxCell id="Na5xRWO-Tquzbx4RLP1C-1" style="edgeStyle=orthogonalEdgeStyle;rounded=0;orthogonalLoop=1;jettySize=auto;html=1;exitX=0.5;exitY=1;exitDx=0;exitDy=0;entryX=1;entryY=0.5;entryDx=0;entryDy=0;" parent="1" source="mNn7HaSKfOEetK7rho-s-17" target="mNn7HaSKfOEetK7rho-s-7" edge="1">
          <mxGeometry relative="1" as="geometry" />
        </mxCell>
        <mxCell id="Na5xRWO-Tquzbx4RLP1C-2" value="Отмена тренировки" style="edgeLabel;html=1;align=center;verticalAlign=middle;resizable=0;points=[];" parent="Na5xRWO-Tquzbx4RLP1C-1" vertex="1" connectable="0">
          <mxGeometry x="0.3756" y="1" relative="1" as="geometry">
            <mxPoint x="13" as="offset" />
          </mxGeometry>
        </mxCell>
        <mxCell id="mNn7HaSKfOEetK7rho-s-17" value="Тренировка идёт" style="rounded=1;whiteSpace=wrap;html=1;" parent="1" vertex="1">
          <mxGeometry x="700" y="-760" width="120" height="60" as="geometry" />
        </mxCell>
        <mxCell id="mNn7HaSKfOEetK7rho-s-18" value="" style="endArrow=open;endFill=1;endSize=12;html=1;rounded=0;entryX=0.5;entryY=0;entryDx=0;entryDy=0;exitX=1;exitY=0.5;exitDx=0;exitDy=0;" parent="1" source="mNn7HaSKfOEetK7rho-s-8" target="mNn7HaSKfOEetK7rho-s-17" edge="1">
          <mxGeometry width="160" relative="1" as="geometry">
            <mxPoint x="761" y="-830" as="sourcePoint" />
            <mxPoint x="636" y="-760" as="targetPoint" />
            <Array as="points">
              <mxPoint x="760" y="-840" />
            </Array>
          </mxGeometry>
        </mxCell>
        <mxCell id="mNn7HaSKfOEetK7rho-s-19" value="Тренировка" style="edgeLabel;html=1;align=center;verticalAlign=middle;resizable=0;points=[];" parent="mNn7HaSKfOEetK7rho-s-18" vertex="1" connectable="0">
          <mxGeometry x="-0.0217" relative="1" as="geometry">
            <mxPoint x="-39" as="offset" />
          </mxGeometry>
        </mxCell>
        <mxCell id="ok0KA5_71_H15zZNkXkO-2" value="" style="endArrow=open;endFill=1;endSize=12;html=1;rounded=0;exitX=0.5;exitY=1;exitDx=0;exitDy=0;entryX=0.5;entryY=0;entryDx=0;entryDy=0;" parent="1" source="mNn7HaSKfOEetK7rho-s-13" target="mNn7HaSKfOEetK7rho-s-7" edge="1">
          <mxGeometry width="160" relative="1" as="geometry">
            <mxPoint x="450" y="-530" as="sourcePoint" />
            <mxPoint x="610" y="-530" as="targetPoint" />
          </mxGeometry>
        </mxCell>
        <mxCell id="ok0KA5_71_H15zZNkXkO-3" value="Отмена тренировки" style="edgeLabel;html=1;align=center;verticalAlign=middle;resizable=0;points=[];" parent="ok0KA5_71_H15zZNkXkO-2" vertex="1" connectable="0">
          <mxGeometry x="-0.0571" relative="1" as="geometry">
            <mxPoint x="1" y="-3" as="offset" />
          </mxGeometry>
        </mxCell>
        <mxCell id="Na5xRWO-Tquzbx4RLP1C-5" value="Тренировка окончена" style="rounded=1;whiteSpace=wrap;html=1;" parent="1" vertex="1">
          <mxGeometry x="910" y="-660" width="120" height="60" as="geometry" />
        </mxCell>
        <mxCell id="Na5xRWO-Tquzbx4RLP1C-6" value="" style="endArrow=open;endFill=1;endSize=12;html=1;rounded=0;entryX=0.5;entryY=0;entryDx=0;entryDy=0;exitX=1;exitY=0.5;exitDx=0;exitDy=0;" parent="1" source="mNn7HaSKfOEetK7rho-s-17" target="Na5xRWO-Tquzbx4RLP1C-5" edge="1">
          <mxGeometry width="160" relative="1" as="geometry">
            <mxPoint x="850" y="-680" as="sourcePoint" />
            <mxPoint x="921" y="-600" as="targetPoint" />
            <Array as="points">
              <mxPoint x="970" y="-730" />
            </Array>
          </mxGeometry>
        </mxCell>
        <mxCell id="Na5xRWO-Tquzbx4RLP1C-7" value="Окончение тренировки" style="edgeLabel;html=1;align=center;verticalAlign=middle;resizable=0;points=[];" parent="Na5xRWO-Tquzbx4RLP1C-6" vertex="1" connectable="0">
          <mxGeometry x="-0.0217" relative="1" as="geometry">
            <mxPoint x="-38" y="-10" as="offset" />
          </mxGeometry>
        </mxCell>
        <mxCell id="Na5xRWO-Tquzbx4RLP1C-8" value="Диаграмма состояний&lt;br&gt;(User)" style="shape=umlFrame;whiteSpace=wrap;html=1;pointerEvents=0;width=100;height=70;" parent="1" vertex="1">
          <mxGeometry x="40" y="-360" width="1020" height="680" as="geometry" />
        </mxCell>
        <mxCell id="Na5xRWO-Tquzbx4RLP1C-9" value="Диаграмма состояний&lt;br&gt;(Trainer)" style="shape=umlFrame;whiteSpace=wrap;html=1;pointerEvents=0;width=100;height=70;" parent="1" vertex="1">
          <mxGeometry x="40" y="360" width="1020" height="680" as="geometry" />
        </mxCell>
      </root>
    </mxGraphModel>
  </diagram>
</mxfile>
